<?xml version="1.0" encoding="utf-8"?>
<!-- Generator: Adobe Illustrator 19.0.0, SVG Export Plug-In . SVG Version: 6.00 Build 0)  -->
<svg version="1.1" id="Layer_1" xmlns="http://www.w3.org/2000/svg" xmlns:xlink="http://www.w3.org/1999/xlink" x="0px" y="0px"
	 viewBox="0 0 502 525" style="enable-background:new 0 0 502 525;" xml:space="preserve">
<style type="text/css">
	.st0{fill:#FFFFFF;}
</style>
<g id="XMLID_201_">
	<path id="XMLID_226_" class="st0" d="M8.9,486.4v-5.3h16.9V504c0,4-1,7.1-3.1,9.1c-2.1,2-4.7,3-7.9,3c-4,0-7.5-1.4-10.3-4.3
		l3.3-4.6c2.3,2.2,4.5,3.2,6.6,3.2c1.5,0,2.8-0.5,3.9-1.5c1.1-1,1.6-2.6,1.6-4.6v-18H8.9z"/>
	<path id="XMLID_224_" class="st0" d="M46.4,507.9c1.6,1.9,3.7,2.8,6.5,2.8c2.7,0,4.9-0.9,6.5-2.8c1.6-1.9,2.4-4.4,2.4-7.6v-19.3
		h5.9v19.5c0,5-1.4,8.9-4.1,11.6c-2.8,2.7-6.3,4.1-10.6,4.1s-7.8-1.4-10.6-4.1c-2.8-2.7-4.1-6.6-4.1-11.6v-19.5H44v19.3
		C44,503.5,44.8,506.1,46.4,507.9z"/>
	<path id="XMLID_222_" class="st0" d="M106.2,481.1h5.9v34.8h-6.4L86,490.5v25.4h-5.9v-34.8H86l20.2,26V481.1z"/>
	<path id="XMLID_220_" class="st0" d="M149.2,499h5.9v11.9c-3.3,3.6-8,5.4-14.1,5.4c-5.1,0-9.4-1.7-12.9-5.1
		c-3.5-3.4-5.2-7.7-5.2-12.8c0-5.2,1.8-9.5,5.3-12.9c3.5-3.5,7.8-5.2,12.8-5.2c5,0,9.2,1.5,12.5,4.4l-3.1,4.5
		c-1.4-1.2-2.7-2-4.1-2.4c-1.4-0.4-3-0.7-4.8-0.7c-3.5,0-6.5,1.1-8.8,3.4c-2.4,2.3-3.6,5.3-3.6,9s1.2,6.7,3.5,8.9
		c2.3,2.2,5.1,3.4,8.4,3.4c3.3,0,6.1-0.7,8.3-2.1V499z"/>
	<path id="XMLID_218_" class="st0" d="M166.5,515.9v-34.8h5.9v29.2h15.9v5.6H166.5z"/>
	<path id="XMLID_216_" class="st0" d="M221.9,481.1v5.5h-18.5v9.2H220v5.2h-16.7v9.3h19.1v5.5h-25v-34.8H221.9z"/>
	<path id="XMLID_214_" class="st0" d="M270.4,486.5v29.4h-5.9v-29.4H254v-5.4h26.9v5.4H270.4z"/>
	<path id="XMLID_212_" class="st0" d="M314.4,481.1v5.5h-18.5v9.2h16.7v5.2h-16.7v9.3H315v5.5h-25v-34.8H314.4z"/>
	<path id="XMLID_210_" class="st0" d="M336.7,485.7c-1.7,0-3.1,0.3-4.2,1c-1.1,0.7-1.6,1.8-1.6,3.2s0.5,2.5,1.6,3.2
		c1.1,0.7,3.4,1.6,7,2.4c3.6,0.9,6.2,2.1,8.1,3.6c1.8,1.6,2.7,3.9,2.7,6.9c0,3-1.1,5.5-3.4,7.4s-5.3,2.8-9,2.8
		c-5.4,0-10.3-1.9-14.5-5.6l3.7-4.4c3.5,3.1,7.2,4.6,10.9,4.6c1.9,0,3.4-0.4,4.5-1.2c1.1-0.8,1.7-1.9,1.7-3.2c0-1.3-0.5-2.4-1.6-3.1
		c-1-0.7-2.8-1.4-5.4-2c-2.6-0.6-4.5-1.2-5.8-1.7s-2.5-1.2-3.5-2c-2.1-1.6-3.1-3.9-3.1-7.2c0-3.2,1.2-5.7,3.5-7.4
		c2.3-1.7,5.2-2.6,8.7-2.6c2.2,0,4.4,0.4,6.6,1.1c2.2,0.7,4.1,1.8,5.7,3.1l-3.1,4.4c-1-0.9-2.4-1.7-4.2-2.3
		C340.1,486,338.4,485.7,336.7,485.7z"/>
	<path id="XMLID_208_" class="st0" d="M374.1,486.5v29.4h-5.9v-29.4h-10.5v-5.4h26.9v5.4H374.1z"/>
	<path id="XMLID_206_" class="st0" d="M419.9,481.1h5.9v34.8h-6.4l-19.7-25.4v25.4h-5.9v-34.8h5.9l20.2,26V481.1z"/>
	<path id="XMLID_204_" class="st0" d="M463.1,481.1v5.5h-18.5v9.2h16.7v5.2h-16.7v9.3h19.1v5.5h-25v-34.8H463.1z"/>
	<path id="XMLID_202_" class="st0" d="M488,486.5v29.4h-5.9v-29.4h-10.5v-5.4h26.9v5.4H488z"/>
</g>
<g id="XMLID_160_">
	<g id="XMLID_167_">
		<path id="XMLID_145_" class="st0" d="M203.6,301.4c-9.8-0.9-19.5-0.6-28.5,0.9c9.3,3.3,20.5,7,32.4,11.6L203.6,301.4z"/>
		<path id="XMLID_144_" class="st0" d="M195.5,275.3c-10.6-0.7-21.1-0.1-30.7,1.9l-0.1,0.2c9.9,3,22,6.4,34.7,10.7L195.5,275.3z"/>
		<path id="XMLID_143_" class="st0" d="M187.6,249.8c-2.3-0.1-4.6-0.2-6.9-0.2l-5.2,9c5.2,1.3,10.6,2.8,16.1,4.4L187.6,249.8z"/>
		<path id="XMLID_142_" class="st0" d="M248.1,339.8c-8.1-4.5-16.8-7.6-25.5-9.7l5,16.2c4.3,2.1,8.6,4.3,12.8,6.6h26.4
			C261.1,347.9,254.8,343.4,248.1,339.8z"/>
		<path id="XMLID_141_" class="st0" d="M181.3,229.5l-1.4-4.6c-10.6-0.5-21.2,0.3-31.1,2.2l-0.9,3.6c8.8,1.8,18.7,3.8,29.1,6.2
			L181.3,229.5z"/>
		<path id="XMLID_140_" class="st0" d="M168.7,149.4c13.2,2.3,25.7,5.2,36.4,7.4c3,5.3,5.9,10.7,8.7,16.1l2.4-4.2
			c-2.2-3.9-4.5-7.8-6.8-11.6c0.6-17.6-0.2-40.5-1.2-63.6l-8.9,12.7c1.7,18.9,5.2,36.5,9.8,50.2c-3.6-6-7.2-11.8-11-17.6
			c0.1-8.8-0.2-19-0.7-29.9l-5.6,8c1.8,8.1,3.9,15.5,6.3,21.9c-0.9-1.4-1.8-2.8-2.7-4.2c-2.1-3.1-4.1-6.2-6.2-9.3
			c-0.1-1.4-0.3-2.8-0.4-4.3l-1.1,1.5c0.3,0.5,0.5,1.1,0.8,1.6c-0.3-0.5-0.6-0.9-1-1.4l-1.9,2.6c0.4,0.1,0.9,0.2,1.3,0.4
			c1.8,2.9,3.5,5.9,5.3,8.8c-2.8-2-5.9-3.8-9.2-5.5l-4.4,6.2c5.6,1,10.9,2,15.7,2.9c2.8,4.7,5.5,9.5,8.3,14.2
			c-7.6-5.5-16.7-10.1-26.7-13.2L168.7,149.4z"/>
		<path id="XMLID_139_" class="st0" d="M173.1,170.9c13,2.6,25.6,5.7,36.9,8.6l3.3-5.8c-12.5-9-28.2-15.9-45.2-18.8L173.1,170.9z"/>
		<path id="XMLID_138_" class="st0" d="M194.4,203.8c-3.9-1-7.8-1.8-11.8-2.3l5,16.1c0.2,0,0.3,0.1,0.5,0.1l7.7-13.5
			C195.3,204,194.9,203.9,194.4,203.8z"/>
		<path id="XMLID_137_" class="st0" d="M169.5,191.7l-4.7-15.1c-1.4-0.1-2.7-0.2-4.1-0.2l-3.1,13.2
			C161.5,190.2,165.5,190.9,169.5,191.7z"/>
		<polygon id="XMLID_110_" class="st0" points="162.5,169 162.5,169 162.5,169 		"/>
		<path id="XMLID_109_" class="st0" d="M180.7,178.8c-1.8-0.4-3.6-0.7-5.4-1l5,16.2c6.4,1.4,12.6,3,18.8,4.6l6.6-11.6
			C197.8,183.4,189.4,180.5,180.7,178.8z"/>
		<path id="XMLID_108_" class="st0" d="M176.7,214.9l-4.5-14.5c-5.8-0.3-11.5-0.2-17.2,0.2l-2.3,9.7
			C160.4,211.6,168.5,213.1,176.7,214.9z"/>
		<path id="XMLID_107_" class="st0" d="M152.8,252.8c4.1,1,8.5,2.1,13.2,3.3l3.5-6C163.6,250.7,158,251.6,152.8,252.8z"/>
		<path id="XMLID_106_" class="st0" d="M183.2,112.1l3.8-5.4c-1.5-11-3.4-23-5.3-35.1c-3.3-19.6-6.7-39.3-11.2-54.3
			c-1,17.6-0.3,38.4,3,57.8C175.8,88.6,179.2,101.3,183.2,112.1z"/>
		<path id="XMLID_105_" class="st0" d="M256.6,362.5c4.4,2.8,8.7,5.6,12.8,8.5l2.6-8.5H256.6z"/>
		<path id="XMLID_104_" class="st0" d="M207.4,77.9c-1.1-19.3-2.4-38.1-4.6-52.8c-3.7,19.3-5.4,43-4.5,65.7L207.4,77.9z"/>
		<path id="XMLID_103_" class="st0" d="M238.5,33.8c-0.2-3-0.5-5.9-0.7-8.7c-1,4.5-2,9.1-2.9,13.9L238.5,33.8z"/>
		<path id="XMLID_102_" class="st0" d="M222,57.2c-0.8-12.5-1.9-24.2-3.2-34.3C216,37.1,214,53.3,213,70L222,57.2z"/>
		<path id="XMLID_101_" class="st0" d="M189.2,103.7l7.3-10.3c-0.3-4.9-0.6-9.9-0.9-14.9c-1.5-21.9-3.2-44-6.1-60.7
			c-3.1,18.8-4.3,41.7-2.8,63.4C187.2,88.9,188.1,96.5,189.2,103.7z"/>
		<path id="XMLID_100_" class="st0" d="M156.3,153.4c-20.4-1.6-41.5,2-58.8,8.9c15.2,1.1,35.2,2.2,55.5,5.2L156.3,153.4z"/>
		<path id="XMLID_99_" class="st0" d="M286.8,315.1l19-61.2c1.4-9.9,2.8-19.7,3.9-29.1l-5.5-9.5c-5.3,18.4-9.7,38.6-12.8,58.6
			C289.2,287.9,287.7,301.9,286.8,315.1z"/>
		<path id="XMLID_98_" class="st0" d="M130.4,53.5c1,1.5,2.1,3,3.2,4.6c2.2,3.1,4.5,6.4,6.9,9.7c4.8,6.6,10,13.5,15.3,20.3
			c8.2,10.3,16.6,20.3,24.4,28.4l2.4-3.4c-5.3-10.6-12.3-21.7-20.4-31.9c-5.4-6.8-11.2-13.2-17.1-18.7c-2.9-2.7-5.9-5.3-8.9-7.5
			c-1.5-1.1-3-2.2-4.4-3.2c-0.8-0.5-1.5-1-2.3-1.4c-0.8-0.4-1.6-1-2.4-1.2c0.6,0.5,1.2,1.4,1.7,2.1C129.3,52,129.9,52.7,130.4,53.5z
			"/>
		<path id="XMLID_97_" class="st0" d="M175.8,122.8l3.3-4.7c-8.8-6-19.5-10.8-31-13c-16.4-3.4-34.3-1.6-48.5,3.7
			c12,1.3,28.7,3,45,6.4C155.5,117.2,166.2,120.1,175.8,122.8z"/>
		<path id="XMLID_96_" class="st0" d="M168.1,133.5l5.9-8.3c-7-2.7-14.7-4.5-22.6-5.3c-18.1-2.1-37.4,1.4-52.6,8
			c13.3,0.4,31.5,0.7,49.5,2.9C155,131.5,161.7,132.5,168.1,133.5z"/>
		<path id="XMLID_95_" class="st0" d="M242.2,142.7c0.6,32.8,3.1,70,8.4,95.7c-2.1-5-4.3-10-6.5-15c-2.1-4.7-4.3-9.3-6.5-13.9
			c1.7-18.2,2.6-40.4,2.9-63.9l-10.9,19c1.6,15.9,4.1,30.7,7.2,43.4c-4-8.4-8.2-16.7-12.6-24.8c0.1,0,0.3,0.1,0.4,0.1
			c-0.2-0.2-0.5-0.4-0.7-0.7c0,0,0-0.1-0.1-0.1c0.2-2.8,0.3-5.7,0.4-8.7l-2.4,4.1c0.2,0.6,0.3,1.3,0.5,1.9c-0.3-0.5-0.5-0.9-0.8-1.4
			L219,183c3,5.9,6,11.9,8.9,17.9c-4.2-3.4-8.8-6.6-13.8-9.4l-5.6,9.8c8.1,2.4,15.8,4.8,22.9,6.9c2.9,6.2,5.7,12.3,8.5,18.6
			c0.1,0.3,0.3,0.7,0.4,1c-9.7-8.7-21.8-15.9-35.1-20.7l-7.5,13.1c16.6,4.6,32.5,10.5,45.9,15.3c2.8,6.7,5.6,13.4,8.2,20.2
			c-11.7-11.6-27.3-21.1-44.5-26.2c-4.3-1.3-8.7-2.3-13.2-3.1l-2.4,4.2l3.4,11c2.1,0.6,4.2,1.2,6.3,1.9
			c19.4,5.7,38.1,13.7,53.5,20.2c1.4,3.8,2.9,7.7,4.2,11.6c1.1,3.1,2.2,6.2,3.2,9.3c-11.2-12.3-26.3-22.6-43.2-28.5
			c-6.9-2.5-14-4.2-21.2-5.2l4.8,15.6c3.3,1.1,6.7,2.2,10,3.4c10.8,3.8,21.4,8.2,31.2,12.8c7.5,3.5,14.6,6.9,21.1,10.1
			c2.4,7.2,4.7,14.4,6.8,21.8c-10.6-13.1-25.3-24.5-42-31.2c-7.7-3.2-15.8-5.4-24-6.7l4.8,15.4c4.2,1.5,8.3,3.2,12.5,4.9
			c10.5,4.3,20.8,9.3,30.4,14.3c7.3,3.9,14.3,7.8,20.6,11.3c0.3,1.1,0.6,2.2,0.9,3.3c1.3,4.8,2.6,9.6,3.8,14.5l2.8-8.9
			c-0.7-2.8-1.4-5.6-2.1-8.4c0,0,0-0.1,0-0.1c4.9-22.1,9.2-50.8,12.8-79.7c1.7-13.7,3.2-27.5,4.5-40.7l-6.5-11.3
			c-4,16.8-7.3,34.8-9.5,52.6c-3.3,26.4-4.1,52.3-2.9,73.6c-2.3-8.3-4.7-16.5-7.3-24.5c4.1-22.1,7.4-50.6,10.1-79.4
			c1-11.5,2-23.1,2.8-34.2l-7.4-12.8c-3.1,15.5-5.5,32-7,48.2c-2.4,26.2-2.3,51.8-0.3,72.8c-1.7-5.2-3.5-10.5-5.3-15.6
			c-1-2.7-2-5.4-3-8.1c3.3-22,5.6-50.3,7.5-79c0.6-10,1.1-20,1.6-29.7l-8.1-14c-2.5,14.7-4.2,30.2-5.1,45.4
			c-1.6,26.1-0.6,51.5,2.2,72.2c-2.1-5.4-4.2-10.7-6.4-16c2.3-28.4,3.9-73,3.6-109.7c0-0.6,0-1.2,0-1.7l-3.6-6.2L242.2,142.7z"/>
		<path id="XMLID_94_" class="st0" d="M211,338.7c1.6,0.7,3.2,1.4,4.8,2.1l-4-12.7c-9.3-1.3-18.5-1.3-27.1-0.2
			C192.5,331,201.5,334.6,211,338.7z"/>
		<path id="XMLID_93_" class="st0" d="M239.6,311.2c-8.1-3.9-16.8-6.6-25.5-8.3l4.8,15.6c4.5,1.9,9,3.9,13.5,6.1
			c10.2,4.8,20.2,10.4,29.4,16c4.9,3,9.7,6,14.2,8.9l2.1-6.9C268.4,329.6,254.9,318.3,239.6,311.2z"/>
		<path id="XMLID_92_" class="st0" d="M247.3,114.6V52.7c-3.2,22.1-5,46.6-5.2,71L247.3,114.6z"/>
		<path id="XMLID_91_" class="st0" d="M148.1,188.1l2.8-11.7c-13.5,0.5-26.7,3.2-38.4,7.3C122.7,184.9,135,186.2,148.1,188.1z"/>
		<path id="XMLID_90_" class="st0" d="M126.7,206c5,0.8,10.6,1.7,16.5,2.7l1.6-6.9C138.6,202.8,132.5,204.2,126.7,206z"/>
		<path id="XMLID_89_" class="st0" d="M102.4,142.9c14.4,0.9,34.1,1.7,53.4,4.5c0.8,0.1,1.5,0.2,2.3,0.3l7.8-11.1
			c-2.1-0.4-4.3-0.8-6.4-1.1C140,132.8,119.1,136.1,102.4,142.9z"/>
		<path id="XMLID_88_" class="st0" d="M212.4,107c0.6,20.4,2.9,40.2,6.3,57.3l6-10.4c0.1-15.6-0.1-32.7-0.6-49.9
			c-0.3-10.6-0.7-21.1-1.2-31.4l-10.6,15C212.2,94.1,212.2,100.6,212.4,107z"/>
		<path id="XMLID_87_" class="st0" d="M227.4,121.2c0,9,0.3,17.9,0.8,26.6l12.5-21.7c0-2.6,0-5.2,0-7.9c0-23.9-0.3-48-1.3-69.1
			l-8,11.4C228.8,80,227.4,100.8,227.4,121.2z"/>
	</g>
	<path id="XMLID_86_" class="st0" d="M222.6,362.5h-90.9c2.5,1.7,5.4,3.6,8.6,5.8l103,60.8L222.6,362.5z"/>
	<g id="XMLID_161_">
		<polygon id="XMLID_85_" class="st0" points="342.2,169 323.4,229.5 379.5,326.9 		"/>
		<polygon id="XMLID_84_" class="st0" points="257.4,114.6 316.9,218.1 337.6,151.6 257.4,38 		"/>
		<polygon id="XMLID_83_" class="st0" points="282,362.5 261.3,429.1 374.1,362.5 		"/>
		<polygon id="XMLID_40_" class="st0" points="319.5,241.9 285,352.9 383.4,352.9 		"/>
	</g>
</g>
</svg>
